<?xml version="1.0" encoding="UTF-8"?>
<svg xmlns="http://www.w3.org/2000/svg" width="720" height="520" viewBox="0 0 720 520" role="img" aria-label="Ilustración: familia en casa con mascotas">
  <defs>
    <linearGradient id="bg" x1="0" y1="0" x2="1" y2="1">
      <stop offset="0" stop-color="#FFE8F0"/>
      <stop offset="1" stop-color="#FFF7E8"/>
    </linearGradient>
    <filter id="shadow" x="-20%" y="-20%" width="140%" height="140%">
      <feDropShadow dx="0" dy="14" stdDeviation="18" flood-color="#000" flood-opacity="0.10"/>
    </filter>
  </defs>

  <!-- Soft background blobs -->
  <rect x="18" y="18" width="684" height="484" rx="34" fill="url(#bg)" />
  <circle cx="140" cy="150" r="90" fill="#DDEBFF" opacity="0.9"/>
  <circle cx="610" cy="170" r="120" fill="#E9D7FF" opacity="0.65"/>
  <circle cx="560" cy="390" r="120" fill="#FFD7E7" opacity="0.55"/>

  <!-- House -->
  <g filter="url(#shadow)">
    <path d="M200 380 L360 250 L520 380 V460 H200 Z" fill="#FFFFFF" stroke="#E7E2DC" stroke-width="4"/>
    <path d="M260 330 L360 250 L460 330" fill="none" stroke="#E7E2DC" stroke-width="10" stroke-linecap="round"/>
    <rect x="320" y="385" width="80" height="75" rx="14" fill="#FFE8F0" stroke="#E7E2DC" stroke-width="4"/>
    <rect x="240" y="390" width="58" height="46" rx="10" fill="#DDEBFF" stroke="#E7E2DC" stroke-width="4"/>
    <rect x="420" y="390" width="58" height="46" rx="10" fill="#E9D7FF" stroke="#E7E2DC" stroke-width="4"/>
  </g>

  <!-- Family group -->
  <g transform="translate(165,260)">
    <!-- ground -->
    <ellipse cx="195" cy="190" rx="220" ry="38" fill="#000" opacity="0.04"/>

    <!-- adult 1 -->
    <g transform="translate(60,40)">
      <circle cx="40" cy="40" r="26" fill="#FFE6D5" />
      <path d="M18 36 C24 18, 56 18, 62 36 C56 12, 24 12, 18 36 Z" fill="#2D2A32" opacity="0.85"/>
      <circle cx="32" cy="42" r="3.2" fill="#2D2A32"/>
      <circle cx="48" cy="42" r="3.2" fill="#2D2A32"/>
      <path d="M33 52 C38 58, 44 58, 49 52" fill="none" stroke="#2D2A32" stroke-width="3.5" stroke-linecap="round"/>
      <rect x="18" y="70" width="44" height="70" rx="18" fill="#FFD7E7"/>
      <rect x="6" y="88" width="18" height="50" rx="9" fill="#FFD7E7"/>
      <rect x="56" y="88" width="18" height="50" rx="9" fill="#FFD7E7"/>
      <rect x="22" y="132" width="16" height="46" rx="8" fill="#FFFFFF"/>
      <rect x="42" y="132" width="16" height="46" rx="8" fill="#FFFFFF"/>
    </g>

    <!-- adult 2 -->
    <g transform="translate(140,30)">
      <circle cx="44" cy="46" r="28" fill="#FFE6D5" />
      <path d="M20 46 C28 20, 66 20, 74 46" fill="#5A4B3B" opacity="0.9"/>
      <circle cx="36" cy="50" r="3.2" fill="#2D2A32"/>
      <circle cx="54" cy="50" r="3.2" fill="#2D2A32"/>
      <path d="M38 62 C44 68, 52 68, 58 62" fill="none" stroke="#2D2A32" stroke-width="3.5" stroke-linecap="round"/>
      <rect x="18" y="78" width="52" height="78" rx="20" fill="#DDEBFF"/>
      <rect x="4" y="100" width="18" height="50" rx="9" fill="#DDEBFF"/>
      <rect x="66" y="100" width="18" height="50" rx="9" fill="#DDEBFF"/>
      <rect x="24" y="150" width="18" height="46" rx="9" fill="#FFFFFF"/>
      <rect x="46" y="150" width="18" height="46" rx="9" fill="#FFFFFF"/>
    </g>

    <!-- kid 1 -->
    <g transform="translate(0,95)">
      <circle cx="40" cy="40" r="20" fill="#FFE6D5"/>
      <path d="M23 36 C26 26, 54 26, 57 36" fill="#2D2A32" opacity="0.75"/>
      <circle cx="33" cy="42" r="2.8" fill="#2D2A32"/>
      <circle cx="47" cy="42" r="2.8" fill="#2D2A32"/>
      <path d="M34 50 C38 54, 42 54, 46 50" fill="none" stroke="#2D2A32" stroke-width="3" stroke-linecap="round"/>
      <rect x="18" y="62" width="44" height="58" rx="18" fill="#E9D7FF"/>
      <rect x="22" y="110" width="16" height="38" rx="8" fill="#FFFFFF"/>
      <rect x="42" y="110" width="16" height="38" rx="8" fill="#FFFFFF"/>
    </g>

    <!-- kid 2 -->
    <g transform="translate(250,105)">
      <circle cx="40" cy="40" r="20" fill="#FFE6D5"/>
      <path d="M22 34 C30 20, 50 20, 58 34" fill="#5A4B3B" opacity="0.75"/>
      <circle cx="33" cy="42" r="2.8" fill="#2D2A32"/>
      <circle cx="47" cy="42" r="2.8" fill="#2D2A32"/>
      <path d="M34 50 C38 54, 42 54, 46 50" fill="none" stroke="#2D2A32" stroke-width="3" stroke-linecap="round"/>
      <rect x="18" y="62" width="44" height="58" rx="18" fill="#FFD7E7"/>
      <rect x="22" y="110" width="16" height="38" rx="8" fill="#FFFFFF"/>
      <rect x="42" y="110" width="16" height="38" rx="8" fill="#FFFFFF"/>
    </g>

    <!-- kid 3 (baby) -->
    <g transform="translate(208,125)">
      <circle cx="26" cy="26" r="16" fill="#FFE6D5"/>
      <circle cx="21" cy="26" r="2.3" fill="#2D2A32"/>
      <circle cx="31" cy="26" r="2.3" fill="#2D2A32"/>
      <path d="M22 33 C25 36, 27 36, 30 33" fill="none" stroke="#2D2A32" stroke-width="2.5" stroke-linecap="round"/>
      <rect x="10" y="40" width="32" height="40" rx="16" fill="#FFF7E8" stroke="#E7E2DC" stroke-width="3"/>
    </g>

    <!-- dog -->
    <g transform="translate(110,165)">
      <ellipse cx="44" cy="28" rx="26" ry="18" fill="#FFF7E8" stroke="#E7E2DC" stroke-width="3"/>
      <circle cx="22" cy="26" r="10" fill="#FFF7E8" stroke="#E7E2DC" stroke-width="3"/>
      <circle cx="58" cy="22" r="8" fill="#FFF7E8" stroke="#E7E2DC" stroke-width="3"/>
      <circle cx="18" cy="26" r="2.2" fill="#2D2A32"/>
      <path d="M24 32 C28 36, 34 36, 38 32" fill="none" stroke="#2D2A32" stroke-width="2.5" stroke-linecap="round"/>
      <path d="M64 36 C80 44, 74 58, 60 54" fill="none" stroke="#E7E2DC" stroke-width="6" stroke-linecap="round"/>
    </g>

    <!-- cat -->
    <g transform="translate(330,168)">
      <ellipse cx="28" cy="24" rx="18" ry="14" fill="#DDEBFF" stroke="#C9D7F3" stroke-width="3"/>
      <path d="M16 18 L10 8 L22 12 Z" fill="#DDEBFF" stroke="#C9D7F3" stroke-width="3"/>
      <path d="M40 18 L46 8 L34 12 Z" fill="#DDEBFF" stroke="#C9D7F3" stroke-width="3"/>
      <circle cx="22" cy="24" r="2.2" fill="#2D2A32"/>
      <circle cx="34" cy="24" r="2.2" fill="#2D2A32"/>
      <path d="M24 30 C28 33, 30 33, 34 30" fill="none" stroke="#2D2A32" stroke-width="2.5" stroke-linecap="round"/>
      <path d="M44 34 C58 44, 52 56, 38 52" fill="none" stroke="#C9D7F3" stroke-width="5" stroke-linecap="round"/>
    </g>
  </g>
</svg>
