<svg xmlns="http://www.w3.org/2000/svg" width="1200" height="500" viewBox="0 0 1200 500" role="img" aria-label="Bebé y hogar">
  <defs>
    <linearGradient id="g" x1="0" y1="0" x2="1" y2="1">
      <stop offset="0" stop-color="#ff8fb9" stop-opacity="0.95"/>
      <stop offset="1" stop-color="#7da2ff" stop-opacity="0.95"/>
    </linearGradient>
    <filter id="s" x="-20%" y="-20%" width="140%" height="140%">
      <feDropShadow dx="0" dy="18" stdDeviation="20" flood-color="#0b1020" flood-opacity=".10"/>
    </filter>
  </defs>
  <rect width="1200" height="500" rx="42" fill="#fff7f2"/>
  <circle cx="260" cy="210" r="140" fill="url(#g)" opacity=".25"/>
  <circle cx="960" cy="140" r="120" fill="url(#g)" opacity=".18"/>
  <g filter="url(#s)">
    <path d="M620 360c-120 0-220-58-220-146 0-74 62-134 140-134 40 0 76 15 102 40 26-25 62-40 102-40 78 0 140 60 140 134 0 88-100 146-264 146z" fill="#ffffff" stroke="#0f172a" stroke-opacity=".08" stroke-width="2"/>
    <path d="M660 158c44 0 80 36 80 80" fill="none" stroke="#7da2ff" stroke-width="18" stroke-linecap="round" opacity=".7"/>
    <path d="M560 250c26 22 70 22 96 0" fill="none" stroke="#0b1020" stroke-opacity=".55" stroke-width="14" stroke-linecap="round"/>
    <circle cx="560" cy="220" r="10" fill="#0b1020" fill-opacity=".55"/>
    <circle cx="650" cy="220" r="10" fill="#0b1020" fill-opacity=".55"/>
    <path d="M320 380h200v-86l-100-70-100 70z" fill="#ffffff" stroke="#0f172a" stroke-opacity=".08" stroke-width="2"/>
    <rect x="370" y="330" width="40" height="50" rx="10" fill="url(#g)" opacity=".25"/>
    <path d="M880 360h220v-96l-110-76-110 76z" fill="#ffffff" stroke="#0f172a" stroke-opacity=".08" stroke-width="2"/>
    <rect x="960" y="310" width="50" height="60" rx="12" fill="url(#g)" opacity=".22"/>
  </g>
</svg>