<svg xmlns="http://www.w3.org/2000/svg" width="1200" height="600" viewBox="0 0 1200 600" role="img" aria-label="Luz nocturna">
  <defs>
    <linearGradient id="g" x1="0" y1="0" x2="1" y2="1">
      <stop offset="0" stop-color="#ff8fb9" stop-opacity="0.95"/>
      <stop offset="1" stop-color="#7da2ff" stop-opacity="0.95"/>
    </linearGradient>
    <filter id="s" x="-20%" y="-20%" width="140%" height="140%">
      <feDropShadow dx="0" dy="18" stdDeviation="20" flood-color="#0b1020" flood-opacity=".12"/>
    </filter>
  </defs>
  <rect width="1200" height="600" rx="48" fill="#fff7f2"/>
  <circle cx="240" cy="160" r="110" fill="url(#g)" filter="url(#s)"/>
  <circle cx="980" cy="440" r="130" fill="url(#g)" opacity=".35"/>
  <g filter="url(#s)">
    <rect x="310" y="130" width="640" height="340" rx="34" fill="#ffffff" stroke="#0f172a" stroke-opacity=".08"/>
    <rect x="350" y="170" width="220" height="220" rx="28" fill="url(#g)" opacity=".18"/>
    <path d="M390 330c40-70 120-110 210-90 70 15 120 70 135 135" fill="none" stroke="#7da2ff" stroke-width="14" stroke-linecap="round" opacity=".65"/>
    <path d="M420 300c25-45 75-70 130-60 45 8 78 45 87 87" fill="none" stroke="#ff8fb9" stroke-width="14" stroke-linecap="round" opacity=".75"/>
    <text x="610" y="255" text-anchor="middle" font-family="system-ui,-apple-system,Segoe UI,Roboto,Arial" font-size="46" font-weight="800" fill="#0b1020">Luz nocturna</text>
    <text x="610" y="305" text-anchor="middle" font-family="system-ui,-apple-system,Segoe UI,Roboto,Arial" font-size="24" font-weight="600" fill="#525b6b">Ilustración original (vector)</text>
    <g opacity=".9">
      <path d="M820 360c0 46-38 84-84 84s-84-38-84-84 38-84 84-84 84 38 84 84z" fill="url(#g)" opacity=".18"/>
      <path d="M700 372c22 18 55 18 77 0" fill="none" stroke="#0b1020" stroke-opacity=".55" stroke-width="10" stroke-linecap="round"/>
      <circle cx="705" cy="345" r="8" fill="#0b1020" fill-opacity=".55"/>
      <circle cx="775" cy="345" r="8" fill="#0b1020" fill-opacity=".55"/>
    </g>
  </g>
</svg>