<?xml version="1.0" encoding="UTF-8"?>
<svg xmlns="http://www.w3.org/2000/svg" width="640" height="360" viewBox="0 0 640 360" role="img" aria-label="Vigilabebés">
  <defs>
    <linearGradient id="bg" x1="0" y1="0" x2="1" y2="1">
      <stop offset="0" stop-color="#DDEBFF"/>
      <stop offset="1" stop-color="#FFF7E8"/>
    </linearGradient>
    <filter id="s" x="-20%" y="-20%" width="140%" height="140%">
      <feDropShadow dx="0" dy="10" stdDeviation="14" flood-opacity="0.12"/>
    </filter>
  </defs>
  <rect width="640" height="360" rx="28" fill="url(#bg)"/>
  <circle cx="150" cy="120" r="90" fill="#FFD7E7" opacity="0.55"/>
  <g filter="url(#s)">
    <rect x="190" y="90" width="260" height="190" rx="26" fill="#ffffff" stroke="#E7E2DC" stroke-width="4"/>
    <rect x="210" y="110" width="220" height="120" rx="18" fill="#FFE8F0" stroke="#E7E2DC" stroke-width="4"/>
    <circle cx="320" cy="170" r="24" fill="#fff" opacity="0.85"/>
    <path d="M288 200 C300 214, 340 214, 352 200" stroke="#1f2937" stroke-width="6" fill="none" stroke-linecap="round" opacity="0.6"/>
    <circle cx="304" cy="160" r="5" fill="#1f2937" opacity="0.55"/>
    <circle cx="336" cy="160" r="5" fill="#1f2937" opacity="0.55"/>
    <circle cx="320" cy="260" r="10" fill="#DDEBFF" stroke="#C9D7F3" stroke-width="4"/>
  </g>
  <path d="M470 90 C520 110, 520 150, 470 170" fill="none" stroke="#7FB9FF" stroke-width="10" stroke-linecap="round" opacity="0.55"/>
  <path d="M490 110 C520 122, 520 138, 490 150" fill="none" stroke="#7FB9FF" stroke-width="10" stroke-linecap="round" opacity="0.35"/>
</svg>
